<?xml version="1.0" encoding="utf-8"?>
<!-- Generator: Adobe Illustrator 28.0.0, SVG Export Plug-In . SVG Version: 6.00 Build 0)  -->
<svg version="1.1" id="图层_1" xmlns="http://www.w3.org/2000/svg" xmlns:xlink="http://www.w3.org/1999/xlink" x="0px" y="0px"
	 viewBox="0 0 128 128" style="enable-background:new 0 0 128 128;" xml:space="preserve">
<style type="text/css">
	.st0{fill:#1AD29D;}
	.st1{fill:#FFFFFF;}
</style>
<path class="st0" d="M108,0.5H21C9.6,0.5,0.5,9.7,0.5,21v87c0,11.3,9.2,20.5,20.5,20.5h87c11.3,0,20.5-9.2,20.5-20.5V21
	C128.5,9.7,119.3,0.5,108,0.5z"/>
<path class="st1" d="M92.9,75.3c-9,0-16.5-6.4-17.9-15.3c-1.3-7.7-2.5-15.5-3.8-23.2c-0.1-0.6-0.7-1.1-0.3-1.7s1.2,0.2,1.2,0.2
	s15.8,2.6,23.7,3.9c1.3,0.2,3.1,0.7,5.1,1.6c1.6,0.8,3.1,1.8,4.5,3.1c3.5,3.3,5.5,7.9,5.7,12.7c0.1,4.9-1.7,9.5-5,13l-0.7,0.7
	c-2.7,2.5-6.1,4.2-9.6,4.7C94.8,75.2,93.8,75.3,92.9,75.3z"/>
<path class="st1" d="M76.5,72.2c-2.9-3.2-4.9-7.2-5.6-11.4L66,30.4l6.8,1.1c0-0.3,0-0.7,0-1c0-5.4-3.9-9.4-8.3-9.4l0,0
	c-4.4,0-8.3,4.1-8.3,9.4c0,0.4,0,0.7,0.1,1.1l7.6-1.2L59,60.8c-0.7,4.3-2.6,8.3-5.6,11.4c-2.7,2.9-5.9,4.9-9.4,6.1l1.3-0.2
	c1.6,11.7,9.7,20.3,19.1,20.3S82,89.8,83.5,78l1.9,0.2C82.3,77,79.1,75,76.5,72.2z"/>
<path class="st1" d="M37.3,74.8c-1,0-1.9-0.1-2.9-0.2c-3-0.5-5.7-1.6-8-3.4l-1.9-1.9c-6.7-7.1-6.4-18.3,0.7-25
	c2.7-2.5,5.9-4.1,9.3-4.6c7.4-1.2,14.7-2.4,22.1-3.6c0.7-0.1,1.6-0.7,2.1-0.4s-0.2,1.3-0.3,1.9c-1.2,7.4-2.5,14.9-3.7,22.3
	C54.2,63.1,55.6,74.8,37.3,74.8z"/>
<path class="st1" d="M32.5,85.2l5.8-1.3c0.1,0.4,0.2,0.8,0.3,1.2l-5.7,1.5C32.7,86.2,32.6,85.7,32.5,85.2z"/>
<path class="st1" d="M37.2,97.2L37.2,97.2c-0.5-0.8-0.9-1.7-1.4-2.5l5.3-2.7c0.4,0.7,0.8,1.4,1.2,2.1L37.2,97.2z"/>
<path class="st1" d="M44.6,106c-0.7-0.6-1.4-1.3-2.1-2l4.2-4.2c0.6,0.6,1.1,1.1,1.7,1.6L44.6,106z"/>
<path class="st1" d="M54.6,111.8c-0.9-0.3-1.8-0.7-2.7-1.1l2.5-5.4c0.7,0.3,1.4,0.6,2.2,0.9L54.6,111.8z"/>
<path class="st1" d="M64.7,113.6L64.7,113.6c-0.5,0-1,0-1.5,0l0.3-5.9c0.8,0,1.6,0,2.4,0l0.3,5.9C65.6,113.6,65.1,113.6,64.7,113.6z
	"/>
<path class="st1" d="M74.7,111.8l-2-5.6c0.7-0.3,1.5-0.6,2.2-0.9l2.5,5.4C76.6,111.1,75.7,111.5,74.7,111.8z"/>
<path class="st1" d="M84.7,106l-3.9-4.5c0.6-0.5,1.2-1.1,1.7-1.6l4.2,4.2C86.2,104.7,85.5,105.3,84.7,106z"/>
<path class="st1" d="M92.1,97.2L87,94.1c0.4-0.7,0.8-1.4,1.2-2.1l5.3,2.7C93.1,95.5,92.6,96.3,92.1,97.2z"/>
<path class="st1" d="M96.5,86.6l-5.7-1.5c0.1-0.4,0.2-0.8,0.3-1.2l5.8,1.3C96.7,85.7,96.6,86.2,96.5,86.6z"/>
<path class="st1" d="M67.1,26.6c0.7,0,1.4,0,2.1,0c-0.4-5.4,2.9-7.8,4.4-8.3c0.7-0.3,1.2-1.1,0.9-1.9c-0.3-0.7-1.5-1-1.9-0.9
	c-7,2.7-5.8,7.1-6.4,8.8C66.5,25.1,66.8,25.9,67.1,26.6z"/>
<path class="st1" d="M61.9,27c-0.7,0-1.4,0-2.1,0c0.4-5.4-2.9-7.8-4.4-8.3c-0.7-0.3-1.2-1.1-0.9-1.9c0.3-0.7,1.5-1,1.9-0.9
	c7,2.7,5.8,7.1,6.4,8.8C62.5,25.5,62.2,26.3,61.9,27z"/>
</svg>
