<?xml version="1.0" encoding="utf-8"?>
<!-- Generator: Adobe Illustrator 28.0.0, SVG Export Plug-In . SVG Version: 6.00 Build 0)  -->
<svg version="1.1" id="图层_1" xmlns="http://www.w3.org/2000/svg" xmlns:xlink="http://www.w3.org/1999/xlink" x="0px" y="0px"
	 viewBox="0 0 128 128" style="enable-background:new 0 0 128 128;" xml:space="preserve">
<style type="text/css">
	.st0{fill:#1AD29D;}
</style>
<g>
	<path class="st0" d="M95,39.7L95,39.7l-26.3-4.3l4.3,26.3C74.6,72.2,84.5,79.3,95,77.6c3.8-0.6,7.3-2.4,10.1-5l-0.3,0.3l0,0l1-1
		c7.3-7.7,7-19.9-0.7-27.2C102.3,42.1,98.8,40.3,95,39.7z"/>
	<path class="st0" d="M75.5,73.7c-2.9-3.2-4.9-7.2-5.6-11.4l-4.9-30.4l6.8,1.1c0-0.3,0-0.7,0-1c0-5.4-3.9-9.4-8.3-9.4h0
		c-4.4,0-8.3,4.1-8.3,9.4c0,0.4,0,0.7,0.1,1.1l7.6-1.2l-4.9,30.4c-0.7,4.3-2.6,8.3-5.6,11.4c-2.7,2.9-5.9,4.9-9.4,6.1l1.3-0.2
		c1.6,11.7,9.7,20.3,19.1,20.3c9.4,0,17.6-8.6,19.1-20.4l1.9,0.2C81.3,78.5,78.1,76.5,75.5,73.7z"/>
	<path class="st0" d="M33.2,77.6c10.5,1.7,20.4-5.4,22.1-15.9l4.3-26.3l-26.3,4.3l0,0c-3.8,0.6-7.3,2.4-10.1,5
		c-7.7,7.3-8,19.5-0.7,27.2l-1.1-1.1l0,0l2.1,2.1L23,72.6C25.8,75.3,29.4,77,33.2,77.6z"/>
	<path class="st0" d="M107.6-0.2h-87C9.2-0.2,0.1,9,0.1,20.3v87c0,11.3,9.2,20.5,20.5,20.5h87c11.3,0,20.5-9.2,20.5-20.5v-87
		C128.1,9,118.9-0.2,107.6-0.2z M31.5,86.7l5.8-1.3c0.1,0.4,0.2,0.8,0.3,1.2l-5.7,1.5C31.7,87.7,31.6,87.2,31.5,86.7z M36.2,98.7
		L36.2,98.7c-0.5-0.8-0.9-1.7-1.4-2.5l5.3-2.7c0.4,0.7,0.8,1.4,1.2,2.1L36.2,98.7z M43.6,107.5c-0.7-0.6-1.4-1.3-2.1-2l4.2-4.2
		c0.6,0.6,1.1,1.1,1.7,1.6L43.6,107.5z M53.6,113.3c-0.9-0.3-1.8-0.7-2.7-1.1l2.5-5.4c0.7,0.3,1.4,0.6,2.2,0.9L53.6,113.3z
		 M63.7,115.1L63.7,115.1c-0.5,0-1,0-1.5,0l0.3-5.9c0.8,0,1.6,0,2.4,0l0.3,5.9C64.6,115.1,64.1,115.1,63.7,115.1z M73.7,113.3
		l-2-5.6c0.7-0.3,1.5-0.6,2.2-0.9l2.5,5.4C75.6,112.6,74.7,113,73.7,113.3z M83.7,107.5l-3.9-4.5c0.6-0.5,1.2-1.1,1.7-1.6l4.2,4.2
		C85.2,106.2,84.5,106.8,83.7,107.5z M91.1,98.7L86,95.6c0.4-0.7,0.8-1.4,1.2-2.1l5.3,2.7C92.1,97,91.6,97.8,91.1,98.7z M95.5,88.1
		l-5.7-1.5c0.1-0.4,0.2-0.8,0.3-1.2l5.8,1.3C95.7,87.2,95.6,87.7,95.5,88.1z M113.8,62.2c-0.6,3.9-2.3,7.6-4.8,10.6l-2-2l0,0
		l2.1,2.1l-2.1,2.1l0,0c-5.9,5.4-14,7-21.2,5C84,92.7,75,102.8,63.6,102.8c-11.3,0-20.3-10-22-22.6c-7,1.7-14.7,0-20.4-5.2l2.1-2.1
		L21.2,75l-0.3-0.3L20.2,74l-1.1-1.1l0.1-0.1c-2.5-3-4.2-6.7-4.8-10.6c-2-12.1,6.2-23.5,18.3-25.5l19.8-3.2
		c-0.1-0.5-0.1-1.1-0.1-1.6c0-3.1,1-5.9,2.7-8.1c0.4-5.4-2.9-7.8-4.4-8.3c-0.8-0.3-1.2-1.1-0.9-1.9c0.3-0.8,1.1-1.2,1.9-0.9
		c2.2,0.7,5.7,3.3,6.4,8.4c1.6-1,3.5-1.6,5.6-1.6c2.3,0,4.4,0.8,6.2,2c0.5-5.3,4.2-8.1,6.4-8.8c0,0,0,0,0,0c0.8-0.3,1.6,0.2,1.9,0.9
		c0.3,0.8-0.2,1.6-0.9,1.9c-1.5,0.5-4.9,2.9-4.4,8.5c0,0,0,0.1,0,0.1c0,0.2,0,0.4-0.1,0.5c1.4,2.1,2.2,4.6,2.2,7.3
		c0,0.5,0,1-0.1,1.5l20.6,3.3C107.5,38.7,115.7,50.1,113.8,62.2z"/>
</g>
</svg>
