<?xml version="1.0" encoding="utf-8"?>
<!-- Generator: Adobe Illustrator 28.0.0, SVG Export Plug-In . SVG Version: 6.00 Build 0)  -->
<svg version="1.1" id="图层_1" xmlns="http://www.w3.org/2000/svg" xmlns:xlink="http://www.w3.org/1999/xlink" x="0px" y="0px"
	 viewBox="0 0 128 128" style="enable-background:new 0 0 128 128;" xml:space="preserve">
<style type="text/css">
	.st0{fill:#1AD29D;}
</style>
<g>
	<path class="st0" d="M117.6,73.9c3-3.7,5-8,5.8-12.7c2.4-14.5-7.5-28.2-22-30.5l-24.7-4c0.1-0.6,0.1-1.2,0.1-1.8
		c0-3.2-1-6.3-2.6-8.7c0.1-0.2,0.1-0.4,0.1-0.7c0,0,0-0.1,0-0.1c-0.6-6.7,3.4-9.5,5.3-10.1C80.5,4.9,81,3.9,80.7,3
		c-0.3-0.9-1.3-1.4-2.2-1.1c0,0,0,0,0,0c-2.7,0.9-7.1,4.2-7.7,10.6c-2.1-1.5-4.6-2.5-7.4-2.5c-2.5,0-4.8,0.7-6.7,2
		c-0.8-6.1-5-9.2-7.6-10.1c-0.9-0.3-1.9,0.2-2.2,1.1c-0.3,0.9,0.2,1.9,1.1,2.2c1.8,0.6,5.8,3.4,5.3,9.9c-2.1,2.6-3.3,6.1-3.3,9.7
		c0,0.6,0,1.3,0.1,1.9l-23.8,3.9c-14.5,2.4-24.3,16-22,30.5C5,65.8,7,70.2,10.1,73.9L10,74l1.3,1.3l0.9,0.9l0.3,0.3L15,74l-2.5-2.5
		l0,0l1.3,1.3C5,63.5,5.4,48.9,14.6,40.2c3.4-3.2,7.6-5.3,12.2-6l0,0L58.4,29l-5.1,31.6c-2,12.6-13.9,21.1-26.4,19
		c-4.6-0.7-8.8-2.8-12.2-6L15,74l-2.5,2.5c6.8,6.3,16.1,8.3,24.4,6.2c2.1,15.1,12.9,27.1,26.4,27.1c13.6,0,24.4-12.1,26.4-27.3
		c8.6,2.5,18.3,0.6,25.4-6l0,0L117.6,73.9l-2.4-2.4l0,0L117.6,73.9z M86.3,81.8c-1.8,14.2-11.6,24.4-22.9,24.4
		c-11.3,0-21.1-10.2-22.9-24.3l-1.6,0.2c4.2-1.4,8.1-3.8,11.2-7.3c3.5-3.8,5.8-8.6,6.7-13.7l5.9-36.4l-9.2,1.5
		c0-0.4-0.1-0.9-0.1-1.3c0-6.4,4.6-11.3,9.9-11.3h0c5.3,0,9.9,4.9,9.9,11.3c0,0.4,0,0.8-0.1,1.2L65,24.7l5.9,36.4
		c0.8,5.1,3.1,9.9,6.7,13.7c3.1,3.4,6.9,5.8,11,7.2L86.3,81.8z M74.4,60.6L69.3,29l31.6,5.1h0c4.6,0.7,8.8,2.8,12.2,6
		c9.2,8.8,9.6,23.3,0.9,32.5l-1.2,1.2l0,0l0.4-0.4c-3.4,3.2-7.6,5.3-12.2,6C88.3,81.7,76.5,73.1,74.4,60.6z"/>
	<path class="st0" d="M48,121.1c1.1,0.5,2.1,0.9,3.2,1.3l2.4-6.7c-0.9-0.3-1.8-0.7-2.6-1.1L48,121.1z"/>
	<path class="st0" d="M36.7,113c0.8,0.8,1.7,1.6,2.5,2.4l4.6-5.4c-0.7-0.6-1.4-1.3-2.1-2L36.7,113z"/>
	<path class="st0" d="M61.9,117.4l-0.3,7.1c0.6,0,1.2,0,1.8,0l0,0c0.6,0,1.2,0,1.8,0l-0.3-7.1C63.8,117.4,62.9,117.4,61.9,117.4z"/>
	<path class="st0" d="M31.7,89l-6.9,1.5c0.1,0.6,0.3,1.1,0.4,1.7l6.9-1.8C31.9,90,31.8,89.5,31.7,89z"/>
	<path class="st0" d="M28.8,101.8c0.5,1,1.1,2,1.7,3v0l6.1-3.7c-0.5-0.8-1-1.7-1.4-2.5L28.8,101.8z"/>
	<path class="st0" d="M94.6,90.4l6.9,1.8c0.1-0.5,0.3-1.1,0.4-1.7L95,89C94.9,89.5,94.8,90,94.6,90.4z"/>
	<path class="st0" d="M73,115.7l2.4,6.7c1.1-0.4,2.2-0.8,3.2-1.3l-3-6.4C74.8,115,73.9,115.4,73,115.7z"/>
	<path class="st0" d="M90.2,101.2l6.1,3.7c0.6-1,1.1-2,1.7-3l-6.4-3.2C91.1,99.5,90.7,100.3,90.2,101.2z"/>
	<path class="st0" d="M82.8,110l4.6,5.4c0.9-0.8,1.7-1.5,2.5-2.4l-5.1-5C84.2,108.7,83.5,109.4,82.8,110z"/>
</g>
</svg>
