<?xml version="1.0" encoding="utf-8"?>
<!-- Generator: Adobe Illustrator 28.0.0, SVG Export Plug-In . SVG Version: 6.00 Build 0)  -->
<svg version="1.1" id="图层_1" xmlns="http://www.w3.org/2000/svg" xmlns:xlink="http://www.w3.org/1999/xlink" x="0px" y="0px"
	 viewBox="0 0 128 128" style="enable-background:new 0 0 128 128;" xml:space="preserve">
<style type="text/css">
	.st0{fill:#1AD29D;}
	.st1{fill:#FFFFFF;}
</style>
<path class="st0" d="M108,0.5H21C9.6,0.5,0.5,9.7,0.5,21v87c0,11.3,9.2,20.5,20.5,20.5h87c11.3,0,20.5-9.2,20.5-20.5V21
	C128.5,9.7,119.3,0.5,108,0.5z"/>
<g>
	<path class="st1" d="M113.7,45.2c-3.9-5.4-9.6-8.9-16.1-10l-20.5-3.4c0-0.2,0-0.4,0-0.4c0-2.8-0.8-5.6-2.2-7.9c0-0.1,0-0.3,0-0.4
		v-0.2c-0.4-4.8,2.3-7.1,3.8-7.5l0.2-0.1c1.4-0.6,2.2-2.2,1.7-3.6c-0.5-1.5-2.1-2.3-3.6-1.8c-2.3,0.8-6.1,3.4-7.3,8.5
		c-1.8-0.9-3.6-1.4-5.6-1.4c-1.8,0-3.4,0.4-4.9,1.1C58,13.6,54.7,10.9,52,10c-1.5-0.5-3.1,0.4-3.6,1.8c-0.5,1.5,0.4,3.1,1.8,3.6
		c0,0,4.1,1.4,3.8,7c-1.9,2.5-2.9,5.7-2.9,9.1c0,0.2,0,0.4,0,0.5l-19.7,3.3C18,37.5,8.7,50.3,10.9,63.7c0.6,4,2.2,7.8,4.7,11
		l-0.4,0.1l2.2,2.2l1,0.9l0.9,0.9l0.1-0.1c5.6,4.8,13.1,6.6,20.4,5.3c2.5,13.8,12.5,23.6,24.3,23.6c11.9,0,22-9.9,24.3-23.7
		c7.9,1.9,16.2-0.4,22.2-6l1.2-1.3l0.1,0.1l0.9-1.1l0.9-0.9l-0.1-0.1c2.4-3.3,4-6.9,4.7-10.8C119,57.1,117.6,50.6,113.7,45.2z
		 M63.7,22.8c4,0,7.1,3.6,7.4,8.1l-6.3-1.1v-0.2l-0.6,0.2l-0.6-0.1v0.2l-7.3,1.2C56.5,26.5,59.7,22.8,63.7,22.8z M31.8,78.3
		c-3.7-0.5-7.2-2.3-10.1-4.9h-0.1l-0.7-0.7c-3.5-3.7-5.4-8.6-5.2-13.6c0.2-5,2.3-9.8,5.9-13.2c2.8-2.6,6.3-4.4,10.1-4.9l26-4.3
		l-4.2,26c-0.8,5-3.5,9.4-7.6,12.3C41.8,78,36.7,79.1,31.8,78.3z M63.8,101.8c-9.3,0-17.1-8.2-18.8-19.6c3.1-1.4,5.8-3.4,8-5.8
		c3.3-3.5,5.4-7.9,6.3-12.8l4.9-30.3l4.9,30.3c0.8,4.8,2.9,9.3,6.3,12.8c2,2.3,4.6,4.1,7.3,5.5C81,93.4,73.1,101.8,63.8,101.8z
		 M107.4,72.5l-0.7,0.7c-2.8,2.6-6.3,4.3-10.1,4.9c-4.9,0.9-10-0.2-14.1-3.1c-4.1-2.9-7-7.3-7.8-12.4l-4.2-26l26.1,4.2
		c3.7,0.5,7.2,2.3,10.1,4.9C114.2,53,114.6,65,107.4,72.5z"/>
	<path class="st1" d="M50.2,116.3c1,0.4,1.9,0.8,2.8,1.1l2.1-5.9c-0.8-0.3-1.6-0.6-2.3-1L50.2,116.3z"/>
	<path class="st1" d="M40.2,109.1c0.7,0.7,1.5,1.4,2.2,2.1l4.1-4.8c-0.6-0.5-1.2-1.1-1.9-1.8L40.2,109.1z"/>
	<path class="st1" d="M62.4,113l-0.3,6.3c0.5,0,1.1,0,1.6,0c0.5,0,1.1,0,1.6,0L65,113C64.1,113,63.3,113,62.4,113z"/>
	<path class="st1" d="M35.8,88l-6.1,1.3c0.1,0.5,0.3,1,0.4,1.5l6.1-1.6C36,88.8,35.9,88.4,35.8,88z"/>
	<path class="st1" d="M39,96.3l-5.7,2.9c0.4,0.9,1,1.8,1.5,2.6l5.4-3.3C39.8,97.8,39.3,97,39,96.3z"/>
	<path class="st1" d="M91.3,89.2l6.1,1.6c0.1-0.4,0.3-1,0.4-1.5L91.7,88C91.5,88.4,91.5,88.8,91.3,89.2z"/>
	<path class="st1" d="M72.2,111.5l2.1,5.9c1-0.4,1.9-0.7,2.8-1.1l-2.6-5.6C73.8,110.9,73,111.2,72.2,111.5z"/>
	<path class="st1" d="M87.4,98.7l5.4,3.3c0.5-0.9,1-1.8,1.5-2.6l-5.6-2.8C88.2,97.2,87.8,97.9,87.4,98.7z"/>
	<path class="st1" d="M80.9,106.5l4.1,4.8c0.8-0.7,1.5-1.3,2.2-2.1l-4.5-4.4C82.1,105.3,81.5,105.9,80.9,106.5z"/>
</g>
</svg>
