<?xml version="1.0" standalone="no"?><!DOCTYPE svg PUBLIC "-//W3C//DTD SVG 1.1//EN" "http://www.w3.org/Graphics/SVG/1.1/DTD/svg11.dtd"><svg t="1755591901696" class="icon" viewBox="0 0 1024 1024" version="1.1" xmlns="http://www.w3.org/2000/svg" p-id="2183" xmlns:xlink="http://www.w3.org/1999/xlink" width="64" height="64"><path d="M479.04 76.64c-217.568 0-394.656 177.024-394.656 394.624 0 217.6 177.088 394.688 394.688 394.688s394.624-177.12 394.624-394.688c0-217.6-177.056-394.624-394.624-394.624z m0 64a330.112 330.112 0 0 1 330.656 330.624A330.176 330.176 0 0 1 479.04 801.92a330.24 330.24 0 0 1-330.656-330.656A330.176 330.176 0 0 1 479.04 140.64zM739.84 700a32 32 0 0 0-22.72 9.376 32 32 0 0 0 0 45.248l181.056 180.992a32 32 0 0 0 45.248 0 32 32 0 0 0 0-45.248L762.432 709.376A32 32 0 0 0 739.808 700z" p-id="2184"></path></svg>