<?xml version="1.0" standalone="no"?><!DOCTYPE svg PUBLIC "-//W3C//DTD SVG 1.1//EN" "http://www.w3.org/Graphics/SVG/1.1/DTD/svg11.dtd"><svg t="1754963616561" class="icon" viewBox="0 0 1024 1024" version="1.1" xmlns="http://www.w3.org/2000/svg" p-id="1677" xmlns:xlink="http://www.w3.org/1999/xlink" width="128" height="128"><path d="M822.784 846.1312H295.3216c-54.9376 0-99.5328-44.544-99.5328-99.5328V378.7264c0-54.9376 44.544-99.5328 99.5328-99.5328H822.784c54.9376 0 99.5328 44.544 99.5328 99.5328v367.872c-0.0512 54.9376-44.5952 99.5328-99.5328 99.5328z" fill="#56E5BE" p-id="1678"></path><path d="M822.784 846.1312H366.3872c-54.9376 0-99.5328-44.544-99.5328-99.5328V442.112c0-54.9376 44.544-99.5328 99.5328-99.5328h456.3968c54.9376 0 99.5328 44.544 99.5328 99.5328v304.4864c-0.0512 54.9376-44.5952 99.5328-99.5328 99.5328z" fill="#50DDB8" p-id="1679"></path><path d="M822.784 846.1312H440.9856c-54.9376 0-99.5328-44.544-99.5328-99.5328V499.456c0-54.9376 44.544-99.5328 99.5328-99.5328h381.7984c54.9376 0 99.5328 44.544 99.5328 99.5328v247.1936c-0.0512 54.8864-44.5952 99.4816-99.5328 99.4816z" fill="#42D3AD" p-id="1680"></path><path d="M822.784 156.8256H201.4208c-71.8336 0-130.2528 58.4192-130.2528 130.2528v459.1104c0 71.8336 58.4192 130.2528 130.2528 130.2528H822.784c71.8336 0 130.2528-58.4192 130.2528-130.2528V287.0784c-0.0512-71.7824-58.4704-130.2528-130.2528-130.2528z m0 658.1248H201.4208c-37.9392 0-68.8128-30.8736-68.8128-68.8128V287.0784c0-37.9392 30.8736-68.8128 68.8128-68.8128H822.784c37.9392 0 68.8128 30.8736 68.8128 68.8128v89.9072H612.864c-77.0048 0-139.6736 62.6688-139.6736 139.6736s62.6688 139.6736 139.6736 139.6736h278.7328v89.9072c-0.0512 37.888-30.8736 68.7104-68.8128 68.7104z m68.7616-220.1088h-278.7328c-43.1104 0-78.2336-35.072-78.2336-78.2336s35.072-78.2336 78.2336-78.2336h278.7328v156.4672z" fill="#2E3138" p-id="1681"></path><path d="M616.0384 516.608m-40.6016 0a40.6016 40.6016 0 1 0 81.2032 0 40.6016 40.6016 0 1 0-81.2032 0Z" fill="#2E3138" p-id="1682"></path></svg>