<?xml version="1.0" standalone="no"?><!DOCTYPE svg PUBLIC "-//W3C//DTD SVG 1.1//EN" "http://www.w3.org/Graphics/SVG/1.1/DTD/svg11.dtd"><svg t="1754963582764" class="icon" viewBox="0 0 1024 1024" version="1.1" xmlns="http://www.w3.org/2000/svg" p-id="1343" xmlns:xlink="http://www.w3.org/1999/xlink" width="128" height="128"><path d="M796.16 904.448H312.5248c-60.16 0-108.9536-48.7936-108.9536-108.9536V390.7072c0-60.16 48.7936-108.9536 108.9536-108.9536h483.584c60.16 0 108.9536 48.7936 108.9536 108.9536v404.8384c0 60.1088-48.7424 108.9024-108.9024 108.9024z" fill="#56E5BE" p-id="1344"></path><path d="M796.16 904.448H386.4064c-60.16 0-108.9536-48.7936-108.9536-108.9536V456.2944c0-60.16 48.7936-108.9536 108.9536-108.9536h409.7024c60.16 0 108.9536 48.7936 108.9536 108.9536v339.2512c0 60.1088-48.7424 108.9024-108.9024 108.9024z" fill="#50DDB8" p-id="1345"></path><path d="M824.7296 904.448H427.8784c-44.3904 0-80.3328-35.9424-80.3328-80.3328V489.8816c0-44.3904 35.9424-80.3328 80.3328-80.3328h396.8512c44.3904 0 80.3328 35.9424 80.3328 80.3328v334.2336c0 44.3392-35.9424 80.3328-80.3328 80.3328z" fill="#42D3AD" p-id="1346"></path><path d="M796.16 159.7952h-74.8032v-49.92c0-16.9472-13.7728-30.72-30.72-30.72s-30.72 13.7728-30.72 30.72v49.92H362.8544v-49.92c0-16.9472-13.7728-30.72-30.72-30.72s-30.72 13.7728-30.72 30.72v49.92H225.4848c-77.0048 0-139.6736 62.6688-139.6736 139.6736v496.0256c0 77.0048 62.6688 139.6736 139.6736 139.6736H796.16c77.0048 0 139.6736-62.6688 139.6736-139.6736V299.4688c-0.0512-77.0048-62.6688-139.6736-139.6736-139.6736z m-570.6752 61.44h75.9296v44.6464c0 16.9472 13.7728 30.72 30.72 30.72s30.72-13.7728 30.72-30.72v-44.6464h297.0112v44.6464c0 16.9472 13.7728 30.72 30.72 30.72s30.72-13.7728 30.72-30.72v-44.6464h74.8032c43.1104 0 78.2336 35.072 78.2336 78.2336v43.52H147.2512v-43.52c0-43.1104 35.072-78.2336 78.2336-78.2336zM796.16 873.728H225.4848c-43.1104 0-78.2336-35.072-78.2336-78.2336V404.4288h727.0912v391.0656c0 43.1616-35.072 78.2336-78.1824 78.2336z" fill="#2E3138" p-id="1347"></path><path d="M463.1552 754.6368c-7.6288 0-15.2576-2.816-21.1968-8.4992l-99.5328-94.976c-12.288-11.7248-12.7488-31.1808-1.024-43.4176 11.7248-12.288 31.1808-12.7488 43.4176-1.024l77.9264 74.3936 168.192-166.1952a30.73024 30.73024 0 0 1 43.4688 0.256 30.73024 30.73024 0 0 1-0.256 43.4688l-189.3888 187.136a30.88896 30.88896 0 0 1-21.6064 8.8576z" fill="#2E3138" p-id="1348"></path></svg>