<?xml version="1.0" standalone="no"?><!DOCTYPE svg PUBLIC "-//W3C//DTD SVG 1.1//EN" "http://www.w3.org/Graphics/SVG/1.1/DTD/svg11.dtd"><svg t="1755591890198" class="icon" viewBox="0 0 1024 1024" version="1.1" xmlns="http://www.w3.org/2000/svg" p-id="2015" xmlns:xlink="http://www.w3.org/1999/xlink" width="64" height="64"><path d="M512 196.267c-89.242 0-162.133 72.891-162.133 162.133S422.758 520.533 512 520.533 674.133 447.642 674.133 358.4 601.242 196.267 512 196.267z m0 51.2c61.577 0 110.933 49.356 110.933 110.933S573.577 469.333 512 469.333A110.54 110.54 0 0 1 401.067 358.4c0-61.577 49.356-110.933 110.933-110.933zM512 25.6c-193.041 0-349.867 158.327-349.867 352.7 0 149.88 71.339 270.438 148.805 352.836 38.724 41.199 79.07 73.097 113.937 95.095 17.408 11.008 33.45 19.542 47.684 25.566 14.234 6.025 25.805 10.07 39.441 10.07 26.42 0 51.814-12.732 86.733-33.86 34.918-21.146 75.35-52.02 114.176-92.604 77.619-81.17 148.958-202.07 148.958-357.103C861.867 183.91 705.04 25.6 512 25.6z m0 51.2c165.137 0 298.667 134.554 298.667 301.5 0 139.366-63.778 247.483-134.759 321.706-35.498 37.103-72.772 65.468-103.714 84.19-30.942 18.74-59.597 26.47-60.194 26.47 0.137 0-8.567-1.416-19.456-6.04-10.923-4.609-24.85-11.913-40.346-21.693-31.01-19.575-68.352-49.015-103.936-86.869-71.168-75.708-134.929-184.15-134.929-317.764 0-166.946 133.53-301.5 298.667-301.5zM167.936 692.804c-40.875 15.207-74.718 33.178-99.874 54.955-25.14 21.794-42.462 49.186-42.462 80.18 0 32.187 18.62 60.415 45.466 82.721 26.845 22.306 62.976 40.619 106.598 55.945 87.228 30.652 204.663 48.862 334.336 48.862s247.108-18.21 334.336-48.862c43.605-15.326 79.753-33.622 106.598-55.945 26.846-22.289 45.466-50.517 45.466-82.722 0-30.993-17.323-58.385-42.462-80.18-25.156-21.776-59-39.747-99.874-54.954a25.6 25.6 0 0 0-32.939 15.07 25.6 25.6 0 0 0 15.07 32.939c37.035 13.773 66.031 29.866 84.241 45.653 18.21 15.787 24.764 29.423 24.764 41.472 0 12.51-7.168 26.88-26.965 43.332-19.798 16.436-51.132 33.059-90.897 47.036-79.548 27.938-192.512 45.96-317.338 45.96-124.809 0-237.79-18.022-317.338-45.96-39.765-13.995-71.1-30.6-90.897-47.036C83.968 854.818 76.8 840.448 76.8 827.921c0-12.032 6.554-25.668 24.764-41.455 18.21-15.787 47.206-31.88 84.24-45.67a25.6 25.6 0 0 0 15.07-32.939 25.6 25.6 0 0 0-32.938-15.053z" p-id="2016"></path></svg>