<?xml version="1.0" standalone="no"?><!DOCTYPE svg PUBLIC "-//W3C//DTD SVG 1.1//EN" "http://www.w3.org/Graphics/SVG/1.1/DTD/svg11.dtd"><svg t="1756366360961" class="icon" viewBox="0 0 1566 1024" version="1.1" xmlns="http://www.w3.org/2000/svg" p-id="4617" width="391.5" height="256" xmlns:xlink="http://www.w3.org/1999/xlink"><path d="M156.39552 698.57792h21.06368a10.42432 10.42432 0 0 1 10.21952 10.42432c0 5.75488-4.48512 10.42944-10.21952 10.42944h-21.06368v21.06368a10.42432 10.42432 0 0 1-10.42432 10.2144 10.26048 10.26048 0 0 1-10.42944-10.2144v-21.06368H114.4832a10.42432 10.42432 0 0 1-10.21952-10.42944c0-5.75488 4.48512-10.42432 10.21952-10.42432h21.05856v-21.06368a10.42432 10.42432 0 0 1 10.42944-10.2144c5.75488 0 10.42432 4.48 10.42432 10.2144v21.06368z m1376.3072-83.40992v-21.06368a10.26048 10.26048 0 0 0-10.42944-10.21952 10.42432 10.42432 0 0 0-10.42432 10.21952v21.06368h-21.06368a10.26048 10.26048 0 0 0-10.21952 10.42432c0 5.58592 4.58752 10.42432 10.21952 10.42432h21.06368v21.06368c0 5.7344 4.66944 10.21952 10.42432 10.21952a10.42432 10.42432 0 0 0 10.42432-10.21952v-21.06368h21.06368c5.7344 0 10.21952-4.66944 10.21952-10.42432a10.42432 10.42432 0 0 0-10.21952-10.42432h-21.06368z m-757.5552 344.07424H250.17344a20.77184 20.77184 0 0 1-20.7872-20.85376c0-11.50976 9.44128-20.85376 20.7872-20.85376h94.5664a82.87232 82.87232 0 0 1-11.08992-41.6V270.98624a83.3536 83.3536 0 0 1 83.49184-83.30752h62.47936v-20.95616a83.3536 83.3536 0 0 1 83.49696-83.31264H1063.424a83.30752 83.30752 0 0 1 83.49184 83.31264v604.94336c0 15.16032-4.0448 29.3632-11.1104 41.60512h115.3536a20.8128 20.8128 0 0 1 20.87936 20.85376 20.82304 20.82304 0 0 1-20.85376 20.84864h-250.24v20.96128c0 15.1552-4.0448 29.35808-11.1104 41.6h11.17696c11.4688 0 20.7872 9.25696 20.7872 20.85376 0 11.50976-9.4464 20.85376-20.7872 20.85376h-109.71136a41.58976 41.58976 0 0 1-6.4 50.77504 41.6 41.6 0 0 1-58.97216 0l-50.78016-50.77504z m76.2368-41.70752h66.31424c22.9376 0 41.54368-18.56 41.54368-41.80992V270.0032c0-22.52288-18.0224-40.62208-40.2432-40.62208h-503.3984c-22.23104 0-40.2432 18.18624-40.2432 40.62208V875.7248c0 23.08608 18.7648 41.80992 41.51808 41.80992h316.54912l-10.72128-10.74176a41.6256 41.6256 0 0 1-10.84416-40.30464l-19.6864-19.712c-61.33248 45.65504-147.49696 36.25984-197.55008-21.53472-50.05824-57.79968-47.0528-144.41984 6.89152-198.6048 54.1184-54.30784 141.01504-57.4976 198.9632-7.31136 57.95328 50.18624 67.20512 136.6528 21.18656 197.96992l19.70176 19.70688a41.55904 41.55904 0 0 1 40.30976 10.81856l69.71392 69.71392z m149.56032-104.26368h62.75072a41.728 41.728 0 0 0 41.51808-41.70752V166.82496c0-23.10656-18.60096-41.70752-41.5232-41.70752h-500.86912a41.728 41.728 0 0 0-41.49248 41.70752v20.85376h396.12416a83.30752 83.30752 0 0 1 83.49184 83.30752v542.2848zM265.8816 46.91968h31.07328c8.7552 0 15.8464 6.94272 15.8464 15.6416 0 8.63232-7.0912 15.63648-15.8464 15.63648h-31.07328v31.07328c0 8.7552-6.94272 15.8464-15.6416 15.8464a15.744 15.744 0 0 1-15.63648-15.8464v-31.07328H203.52a15.70304 15.70304 0 0 1-15.8464-15.6416c0-8.63232 7.08608-15.63648 15.8464-15.63648h31.06816V15.8464C234.5984 7.0912 241.54112 0 250.23488 0c8.63232 0 15.6416 7.0912 15.6416 15.8464v31.0784-0.00512zM20.85376 938.38848c0-11.50976 9.4464-20.85376 20.7872-20.85376h125.24544c11.4688 0 20.7872 9.25696 20.7872 20.85376 0 11.50976-9.44128 20.85376-20.7872 20.85376H41.64096a20.77184 20.77184 0 0 1-20.7872-20.85376z m657.62304-134.79424a104.27904 104.27904 0 0 0-147.47648-147.47136c-40.72448 40.72448-40.72448 106.752 0 147.47136 40.72448 40.72448 106.752 40.72448 147.47648 0zM458.76736 312.79616a20.85376 20.85376 0 0 1 20.83328-20.85376h229.4016a20.85376 20.85376 0 1 1 0 41.70752H479.62112a20.7872 20.7872 0 0 1-20.85376-20.85376z m0 104.26368c0-11.50976 9.27744-20.85376 20.70528-20.85376h333.94176a20.736 20.736 0 0 1 20.70528 20.85376c0 11.50976-9.27744 20.85376-20.70528 20.85376H479.47264a20.72576 20.72576 0 0 1-20.70528-20.85376z m0 104.2688a20.82816 20.82816 0 0 1 20.8128-20.85376h146.05312a20.7872 20.7872 0 0 1 20.8128 20.85376 20.82304 20.82304 0 0 1-20.8128 20.85376H479.58016a20.77184 20.77184 0 0 1-20.8128-20.85376zM62.56128 396.20608C28.0064 396.20608 0 368.19968 0 333.64992s28.0064-62.56128 62.56128-62.56128c34.54976 0 62.55616 28.0064 62.55616 62.56128 0 34.54976-28.0064 62.55616-62.55616 62.55616z m0-31.27808a31.2832 31.2832 0 1 0 0-62.56128 31.2832 31.2832 0 0 0 0 62.5664z m1292.88704-93.83936c-34.54976 0-62.55616-28.0064-62.55616-62.55616 0-34.55488 28.0064-62.56128 62.55616-62.56128s62.56128 28.0064 62.56128 62.56128c0 34.54976-28.0064 62.55616-62.56128 62.55616z m0-31.2832a31.2832 31.2832 0 1 0 0-62.55616 31.2832 31.2832 0 0 0 0 62.56128z" fill="#CFD8E6" p-id="4618"></path></svg>