<?xml version="1.0" encoding="utf-8"?>
<!-- Generator: Adobe Illustrator 28.0.0, SVG Export Plug-In . SVG Version: 6.00 Build 0)  -->
<svg version="1.1" id="图层_1" xmlns="http://www.w3.org/2000/svg" xmlns:xlink="http://www.w3.org/1999/xlink" x="0px" y="0px"
	 viewBox="0 0 128 128" style="enable-background:new 0 0 128 128;" xml:space="preserve">
<style type="text/css">
	.st0{fill:#DDF6EA;}
	.st1{fill:#1AD29D;}
</style>
<path class="st0" d="M82.4,75.7c-2.9-0.6-2.2,6.1-17.4,8.6c-23.1,2.2-25.2-7.8-25-6C41.2,84,51,97,55.4,100c1.1,0.7,2,1.1,3.1,1.7
	c3-0.4,7.5-1.4,12.3-3.9c4.2-2.2,11.3-9.5,11.6-17.5C82.7,75.6,85.2,76.2,82.4,75.7z"/>
<path class="st1" d="M113.2,40.6c-3.9-5.4-9.6-8.9-16.1-10l-20.5-3.4c0-0.2,0-0.4,0-0.4c0-2.8-0.8-5.6-2.2-7.9c0-0.1,0-0.3,0-0.4
	v-0.2c-0.4-4.8,2.3-7.1,3.8-7.5l0.2-0.1c1.4-0.6,2.2-2.2,1.7-3.6c-0.5-1.5-2.1-2.3-3.6-1.8c-2.3,0.8-6.1,3.4-7.3,8.5
	c-1.8-0.9-3.6-1.4-5.6-1.4c-1.8,0-3.4,0.4-4.9,1.1c-1.2-4.5-4.5-7.2-7.2-8.1c-1.5-0.5-3.1,0.4-3.6,1.8c-0.5,1.5,0.4,3.1,1.8,3.6
	c0,0,4.1,1.4,3.8,7c-1.9,2.5-2.9,5.7-2.9,9.1c0,0.2,0,0.4,0,0.5l-19.7,3.3c-13.4,2.2-22.7,15-20.5,28.4c0.6,4,2.2,7.8,4.7,11
	l-0.4,0.1l2.2,2.2l0,0l1,0.9l0.9,0.9l0.1-0.1c5.6,4.8,13.1,6.6,20.4,5.3C41.8,93.2,51.8,103,63.6,103c11.9,0,22-9.9,24.3-23.7
	c7.9,1.9,16.2-0.4,22.2-6l1.2-1.3l0.1,0.1l0.9-1.1l0.9-0.9l-0.1-0.1c2.4-3.3,4-6.9,4.7-10.8C118.5,52.5,117.1,46,113.2,40.6z
	 M63.7,25.2l-0.4,0.1l-0.2,0.1l-7.3,1.2c0.2-4.6,3.4-8.3,7.4-8.3s7.1,3.6,7.4,8.1l-6.3-1.1L64,25.1L63.7,25.2z M21.1,41.3
	c2.8-2.6,6.3-4.4,10.1-4.9l26-4.3l-4.2,26c-0.8,5-3.5,9.4-7.6,12.3c-4.1,3-9.2,4.1-14.1,3.3c-3.7-0.5-7.2-2.3-10.1-4.9h-0.1
	l-0.7-0.7c-3.5-3.7-5.4-8.6-5.2-13.6C15.4,49.5,17.5,44.7,21.1,41.3z M63.3,97.2c-9.3,0-17.1-8.2-18.8-19.6c3.1-1.4,5.8-3.4,8-5.8
	c3.3-3.5,5.4-7.9,6.3-12.8l4.8-29.8c0,0,0-0.1,0.1-0.1s0.1,0.1,0.1,0.1L68.6,59c0.8,4.8,2.9,9.3,6.3,12.8c2,2.3,4.6,4.1,7.3,5.5
	C80.5,88.8,72.6,97.2,63.3,97.2z M106.9,67.9l-0.7,0.7c-2.8,2.6-6.3,4.3-10.1,4.9c-4.9,0.9-10-0.2-14.1-3.1s-7-7.3-7.8-12.4L70,32
	l26.1,4.2c3.7,0.5,7.2,2.3,10.1,4.9C113.7,48.4,114.1,60.4,106.9,67.9z"/>
<path class="st1" d="M49.9,114.2c1,0.4,1.9,0.8,2.8,1.1l2.1-5.9c-0.8-0.3-1.6-0.6-2.3-1L49.9,114.2z"/>
<path class="st1" d="M39.9,107c0.7,0.7,1.5,1.4,2.2,2.1l4.1-4.8c-0.6-0.5-1.2-1.1-1.9-1.8L39.9,107z"/>
<path class="st1" d="M62.1,110.9l-0.3,6.3c0.5,0,1.1,0,1.6,0l0,0c0.5,0,1.1,0,1.6,0l-0.3-6.3C63.8,110.9,63,110.9,62.1,110.9z"/>
<path class="st1" d="M35.5,85.9l-6.1,1.3c0.1,0.5,0.3,1,0.4,1.5l6.1-1.6C35.7,86.7,35.6,86.3,35.5,85.9z"/>
<path class="st1" d="M33,97.1c0.4,0.9,1,1.8,1.5,2.6l0,0l5.4-3.3c-0.4-0.7-0.9-1.5-1.2-2.2L33,97.1z"/>
<path class="st1" d="M91,87.1l6.1,1.6c0.1-0.4,0.3-1,0.4-1.5l-6.1-1.3C91.2,86.3,91.2,86.7,91,87.1z"/>
<path class="st1" d="M71.9,109.4l2.1,5.9c1-0.4,1.9-0.7,2.8-1.1l-2.6-5.6C73.5,108.8,72.7,109.1,71.9,109.4z"/>
<path class="st1" d="M87.1,96.6l5.4,3.3c0.5-0.9,1-1.8,1.5-2.6l-5.6-2.8C87.9,95.1,87.5,95.8,87.1,96.6z"/>
<path class="st1" d="M80.6,104.4l4.1,4.8c0.8-0.7,1.5-1.3,2.2-2.1l-4.5-4.4C81.8,103.2,81.2,103.8,80.6,104.4z"/>
</svg>
