<?xml version="1.0" encoding="utf-8"?>
<!-- Generator: Adobe Illustrator 28.0.0, SVG Export Plug-In . SVG Version: 6.00 Build 0)  -->
<svg version="1.1" id="图层_1" xmlns="http://www.w3.org/2000/svg" xmlns:xlink="http://www.w3.org/1999/xlink" x="0px" y="0px"
	 viewBox="0 0 128 128" style="enable-background:new 0 0 128 128;" xml:space="preserve">
<style type="text/css">
	.st0{fill:#DDF6EA;}
	.st1{fill:#1AD29D;}
</style>
<path class="st0" d="M108.8,37c-4.3-2.9-5.8-9.6-11-9c-1.2,10.6-8.3,26.3-14.8,35.7c-7.3,10.7-20,23.4-31,28.3
	c1.2,6.4,7.1,7,12.1,10.4c1.2,0.8,2.3,1.3,3.5,1.9c10.8-3,12.8-14.9,29.6-27.6c12.4-9.4,15.9-25.4,15.4-36.4
	C111.5,39.1,110.3,38,108.8,37z"/>
<g>
	<path class="st1" d="M108.8,31.4c-8.8-13-18.9-13.6-25.7-13c-5.6,0.5-15,3.8-22.3,9.9C55,33,40.6,48.2,40.5,48.3
		c-0.7,0.7-1,1.7-1,2.7s0.4,1.9,1.2,2.6c0.7,0.7,1.7,1,2.7,1s1.9-0.4,2.6-1.1l0.3-0.3c4.4-4.6,14.9-15.6,19.3-19.2
		c5.8-4.8,13.6-7.8,18.3-8.2c5.7-0.5,12.4,0.2,18.9,9.7c7.3,10.8,2.9,22.8-0.9,28.2C95.3,73.2,71.5,94.4,64,101
		c-7.4-6.7-30.1-28.2-37-37.5c-7-9.4-7.4-18.4-1.1-27.6c7.9-11.6,22.8-9.8,23-9.8c2,0.2,3.9-1.2,4.2-3.2S52,19,50,18.7
		c-0.2,0-19.5-2.8-30.2,13c-8,11.8-7.5,24.4,1.3,36.2c7.8,10.5,32.6,33.8,40,40.6l0.2,0.2c0.7,0.6,1.6,1,2.5,1s1.7-0.3,2.5-0.9
		l0.2-0.2c7.8-6.8,33.8-29.9,41.3-40.6C112.7,61.1,118.4,45.5,108.8,31.4z"/>
	<path class="st1" d="M94.4,57.6c0.6,0.7,1.4,1,2.4,1.1h0.1c1.7,0,3.2-1.4,3.3-3.1c0-0.7,0.3-7-2.4-12.6c-2.2-4.6-7.5-8.3-9.2-9.3
		c-1.5-0.9-3.6-0.4-4.5,1.1s-0.4,3.6,1.1,4.5c1.3,0.8,5.3,3.7,6.7,6.5c1.9,4,1.8,8.9,1.8,9.4C93.5,56.1,93.8,56.9,94.4,57.6z"/>
</g>
</svg>
