<?xml version="1.0" encoding="utf-8"?>
<!-- Generator: Adobe Illustrator 28.0.0, SVG Export Plug-In . SVG Version: 6.00 Build 0)  -->
<svg version="1.1" id="图层_1" xmlns="http://www.w3.org/2000/svg" xmlns:xlink="http://www.w3.org/1999/xlink" x="0px" y="0px"
	 viewBox="0 0 128 128" style="enable-background:new 0 0 128 128;" xml:space="preserve">
<style type="text/css">
	.st0{fill:#1AD29D;}
	.st1{fill:#2C3834;}
	.st2{fill:#FFFFFF;}
</style>
<path class="st0" d="M91.9,76.9c-9,0-16.5-6.4-17.9-15.3l-4.1-24.9l24.9,4.1c3.5,0.6,6.8,2.2,9.6,4.7c3.5,3.3,5.5,7.9,5.7,12.7
	c0.1,4.9-1.7,9.5-5,13l-0.7,0.7c-2.7,2.5-6.1,4.2-9.6,4.7C93.9,76.8,92.9,76.9,91.9,76.9z"/>
<path class="st0" d="M75.5,73.7c-2.9-3.2-4.9-7.2-5.6-11.4L65,31.9l6.8,1.1c0-0.3,0-0.7,0-1c0-5.4-3.9-9.4-8.3-9.4l0,0
	c-4.4,0-8.3,4.1-8.3,9.4c0,0.4,0,0.7,0.1,1.1l7.6-1.2L58,62.3c-0.7,4.3-2.6,8.3-5.6,11.4c-2.7,2.9-5.9,4.9-9.4,6.1l1.3-0.2
	c1.6,11.7,9.7,20.3,19.1,20.3S81,91.3,82.5,79.5l1.9,0.2C81.3,78.5,78.1,76.5,75.5,73.7z"/>
<path class="st0" d="M36.3,76.4c-1,0-1.9-0.1-2.9-0.2c-3-0.5-5.7-1.6-8-3.4l-1.9-1.9c-6.7-7.1-6.4-18.3,0.7-25
	c2.7-2.5,5.9-4.1,9.3-4.6l24.2-4l-4,24.2C52.4,70.1,45.1,76.4,36.3,76.4C36.3,76.4,36.3,76.4,36.3,76.4z"/>
<path class="st0" d="M-127.9,61.1h-87c-11.4,0-20.5,9.2-20.5,20.5v87c0,11.3,9.2,20.5,20.5,20.5h87c11.3,0,20.5-9.2,20.5-20.5v-87
	C-107.4,70.3-116.6,61.1-127.9,61.1z"/>
<path class="st0" d="M31.5,86.7l5.8-1.3c0.1,0.4,0.2,0.8,0.3,1.2l-5.7,1.5C31.7,87.7,31.6,87.2,31.5,86.7z"/>
<path class="st0" d="M36.2,98.7L36.2,98.7c-0.5-0.8-0.9-1.7-1.4-2.5l5.3-2.7c0.4,0.7,0.8,1.4,1.2,2.1L36.2,98.7z"/>
<path class="st0" d="M43.6,107.5c-0.7-0.6-1.4-1.3-2.1-2l4.2-4.2c0.6,0.6,1.1,1.1,1.7,1.6L43.6,107.5z"/>
<path class="st0" d="M53.6,113.3c-0.9-0.3-1.8-0.7-2.7-1.1l2.5-5.4c0.7,0.3,1.4,0.6,2.2,0.9L53.6,113.3z"/>
<path class="st0" d="M63.7,115.1L63.7,115.1c-0.5,0-1,0-1.5,0l0.3-5.9c0.8,0,1.6,0,2.4,0l0.3,5.9C64.6,115.1,64.1,115.1,63.7,115.1z
	"/>
<path class="st0" d="M73.7,113.3l-2-5.6c0.7-0.3,1.5-0.6,2.2-0.9l2.5,5.4C75.6,112.6,74.7,113,73.7,113.3z"/>
<path class="st0" d="M83.7,107.5l-3.9-4.5c0.6-0.5,1.2-1.1,1.7-1.6l4.2,4.2C85.2,106.2,84.5,106.8,83.7,107.5z"/>
<path class="st0" d="M91.1,98.7L86,95.6c0.4-0.7,0.8-1.4,1.2-2.1l5.3,2.7C92.1,97,91.6,97.8,91.1,98.7z"/>
<path class="st0" d="M95.5,88.1l-5.7-1.5c0.1-0.4,0.2-0.8,0.3-1.2l5.8,1.3C95.7,87.2,95.6,87.7,95.5,88.1z"/>
<g>
	<path class="st1" d="M355.1,37.5c-3.9-5.4-9.6-8.9-16.1-10l-20.5-3.4c0-0.2,0-0.4,0-0.4c0-2.8-0.8-5.6-2.2-7.9c0-0.1,0-0.3,0-0.4
		v-0.2c-0.4-4.8,2.3-7.1,3.8-7.5l0.2-0.1c1.4-0.6,2.2-2.2,1.7-3.6c-0.5-1.5-2.1-2.3-3.6-1.8c-2.3,0.8-6.1,3.4-7.3,8.5
		c-1.8-0.9-3.6-1.4-5.6-1.4c-1.8,0-3.4,0.4-4.9,1.1c-1.2-4.5-4.5-7.2-7.2-8.1c-1.5-0.5-3.1,0.4-3.6,1.8c-0.5,1.5,0.4,3.1,1.8,3.6
		c0,0,4.1,1.4,3.8,7c-1.9,2.5-2.9,5.7-2.9,9.1c0,0.2,0,0.4,0,0.5l-19.7,3.3c-13.4,2.2-22.7,15-20.5,28.4c0.6,4,2.2,7.8,4.7,11
		l-0.4,0.1l2.2,2.2l1,0.9l0.9,0.9l0.1-0.1c5.6,4.8,13.1,6.6,20.4,5.3c2.5,13.8,12.5,23.6,24.3,23.6c11.9,0,22-9.9,24.3-23.7
		c7.9,1.9,16.2-0.4,22.2-6l1.2-1.3l0.1,0.1l0.9-1.1l0.9-0.9l-0.1-0.1c2.4-3.3,4-6.9,4.7-10.8C360.4,49.4,359,42.9,355.1,37.5z
		 M305.1,15.1c4,0,7.1,3.6,7.4,8.1l-6.3-1.1v-0.2l-0.6,0.2L305,22v0.2l-7.3,1.2C297.9,18.8,301.1,15.1,305.1,15.1z M273.2,70.6
		c-3.7-0.5-7.2-2.3-10.1-4.9H263l-0.7-0.7c-3.5-3.7-5.4-8.6-5.2-13.6c0.2-5,2.3-9.8,5.9-13.2c2.8-2.6,6.3-4.4,10.1-4.9l26-4.3
		l-4.2,26c-0.8,5-3.5,9.4-7.6,12.3C283.2,70.3,278.1,71.4,273.2,70.6z M305.2,94.1c-9.3,0-17.1-8.2-18.8-19.6c3.1-1.4,5.8-3.4,8-5.8
		c3.3-3.5,5.4-7.9,6.3-12.8l4.9-30.3l4.9,30.3c0.8,4.8,2.9,9.3,6.3,12.8c2,2.3,4.6,4.1,7.3,5.5C322.4,85.7,314.5,94.1,305.2,94.1z
		 M348.8,64.8l-0.7,0.7c-2.8,2.6-6.3,4.3-10.1,4.9c-4.9,0.9-10-0.2-14.1-3.1c-4.1-2.9-7-7.3-7.8-12.4l-4.2-26l26.1,4.2
		c3.7,0.5,7.2,2.3,10.1,4.9C355.6,45.3,356,57.3,348.8,64.8z"/>
	<path class="st1" d="M291.6,108.6c1,0.4,1.9,0.8,2.8,1.1l2.1-5.9c-0.8-0.3-1.6-0.6-2.3-1L291.6,108.6z"/>
	<path class="st1" d="M281.6,101.4c0.7,0.7,1.5,1.4,2.2,2.1l4.1-4.8c-0.6-0.5-1.2-1.1-1.9-1.8L281.6,101.4z"/>
	<path class="st1" d="M303.8,105.3l-0.3,6.3c0.5,0,1.1,0,1.6,0s1.1,0,1.6,0l-0.3-6.3C305.5,105.3,304.7,105.3,303.8,105.3z"/>
	<path class="st1" d="M277.2,80.3l-6.1,1.3c0.1,0.5,0.3,1,0.4,1.5l6.1-1.6C277.4,81.1,277.3,80.7,277.2,80.3z"/>
	<path class="st1" d="M280.4,88.6l-5.7,2.9c0.4,0.9,1,1.8,1.5,2.6l5.4-3.3C281.2,90.1,280.7,89.3,280.4,88.6z"/>
	<path class="st1" d="M332.7,81.5l6.1,1.6c0.1-0.4,0.3-1,0.4-1.5l-6.1-1.3C332.9,80.7,332.9,81.1,332.7,81.5z"/>
	<path class="st1" d="M313.6,103.8l2.1,5.9c1-0.4,1.9-0.7,2.8-1.1l-2.6-5.6C315.2,103.2,314.4,103.5,313.6,103.8z"/>
	<path class="st1" d="M328.8,91l5.4,3.3c0.5-0.9,1-1.8,1.5-2.6l-5.6-2.8C329.6,89.5,329.2,90.2,328.8,91z"/>
	<path class="st1" d="M322.3,98.8l4.1,4.8c0.8-0.7,1.5-1.3,2.2-2.1l-4.5-4.4C323.5,97.6,322.9,98.2,322.3,98.8z"/>
</g>
<path class="st0" d="M66.2,28.1c0.7,0,1.4,0,2.1,0c-0.4-5.4,2.9-7.8,4.4-8.3c0.7-0.3,1.2-1.1,0.9-1.9c-0.3-0.7-1.5-1-1.9-0.9
	c-7,2.7-5.8,7.1-6.4,8.8C65.5,26.6,65.8,27.4,66.2,28.1z"/>
<path class="st0" d="M60.9,28.5c-0.7,0-1.4,0-2.1,0c0.4-5.4-2.9-7.8-4.4-8.3c-0.7-0.3-1.2-1.1-0.9-1.9c0.3-0.7,1.5-1,1.9-0.9
	c7,2.7,5.8,7.1,6.4,8.8C61.5,27,61.2,27.8,60.9,28.5z"/>
<g>
	<path class="st2" d="M-122.3,105.7c-3.9-5.4-9.6-8.9-16.1-10l-20.5-3.4c0-0.2,0-0.4,0-0.4c0-2.8-0.8-5.6-2.2-7.9c0-0.1,0-0.3,0-0.4
		v-0.2c-0.4-4.8,2.3-7.1,3.8-7.5l0.2-0.1c1.4-0.6,2.2-2.2,1.7-3.6c-0.5-1.5-2.1-2.3-3.6-1.8c-2.3,0.8-6.1,3.4-7.3,8.5
		c-1.8-0.9-3.6-1.4-5.6-1.4c-1.8,0-3.4,0.4-4.9,1.1c-1.2-4.5-4.5-7.2-7.2-8.1c-1.5-0.5-3.1,0.4-3.6,1.8c-0.5,1.5,0.4,3.1,1.8,3.6
		c0,0,4.1,1.4,3.8,7c-1.9,2.5-2.9,5.7-2.9,9.1c0,0.2,0,0.4,0,0.5l-19.7,3.3c-13.4,2.2-22.7,15-20.5,28.4c0.6,4,2.2,7.8,4.7,11
		l-0.4,0.1l2.2,2.2l1,0.9l0.9,0.9l0.1-0.1c5.6,4.8,13.1,6.6,20.4,5.3c2.5,13.8,12.5,23.6,24.3,23.6c11.9,0,22-9.9,24.3-23.7
		c7.9,1.9,16.2-0.4,22.2-6l1.2-1.3l0.1,0.1l0.9-1.1l0.9-0.9l-0.1-0.1c2.4-3.3,4-6.9,4.7-10.8C-117,117.6-118.4,111.1-122.3,105.7z
		 M-172.3,83.3c4,0,7.1,3.6,7.4,8.1l-6.3-1.1v-0.2l-0.6,0.2l-0.6-0.1v0.2l-7.3,1.2C-179.5,87-176.3,83.3-172.3,83.3z M-204.2,138.8
		c-3.7-0.5-7.2-2.3-10.1-4.9h-0.1l-0.7-0.7c-3.5-3.7-5.4-8.6-5.2-13.6c0.2-5,2.3-9.8,5.9-13.2c2.8-2.6,6.3-4.4,10.1-4.9l26-4.3
		l-4.2,26c-0.8,5-3.5,9.4-7.6,12.3C-194.2,138.5-199.3,139.6-204.2,138.8z M-172.2,162.3c-9.3,0-17.1-8.2-18.8-19.6
		c3.1-1.4,5.8-3.4,8-5.8c3.3-3.5,5.4-7.9,6.3-12.8l4.9-30.3l4.9,30.3c0.8,4.8,2.9,9.3,6.3,12.8c2,2.3,4.6,4.1,7.3,5.5
		C-155,153.9-162.9,162.3-172.2,162.3z M-128.6,133l-0.7,0.7c-2.8,2.6-6.3,4.3-10.1,4.9c-4.9,0.9-10-0.2-14.1-3.1
		c-4.1-2.9-7-7.3-7.8-12.4l-4.2-26l26.1,4.2c3.7,0.5,7.2,2.3,10.1,4.9C-121.8,113.5-121.4,125.5-128.6,133z"/>
	<path class="st2" d="M-185.8,176.8c1,0.4,1.9,0.8,2.8,1.1l2.1-5.9c-0.8-0.3-1.6-0.6-2.3-1L-185.8,176.8z"/>
	<path class="st2" d="M-195.8,169.6c0.7,0.7,1.5,1.4,2.2,2.1l4.1-4.8c-0.6-0.5-1.2-1.1-1.9-1.8L-195.8,169.6z"/>
	<path class="st2" d="M-173.6,173.5l-0.3,6.3c0.5,0,1.1,0,1.6,0s1.1,0,1.6,0l-0.3-6.3C-171.9,173.5-172.7,173.5-173.6,173.5z"/>
	<path class="st2" d="M-200.2,148.5l-6.1,1.3c0.1,0.5,0.3,1,0.4,1.5l6.1-1.6C-200,149.3-200.1,148.9-200.2,148.5z"/>
	<path class="st2" d="M-197,156.8l-5.7,2.9c0.4,0.9,1,1.8,1.5,2.6l5.4-3.3C-196.2,158.3-196.7,157.5-197,156.8z"/>
	<path class="st2" d="M-144.7,149.7l6.1,1.6c0.1-0.4,0.3-1,0.4-1.5l-6.1-1.3C-144.5,148.9-144.5,149.3-144.7,149.7z"/>
	<path class="st2" d="M-163.8,172l2.1,5.9c1-0.4,1.9-0.7,2.8-1.1l-2.6-5.6C-162.2,171.4-163,171.7-163.8,172z"/>
	<path class="st2" d="M-148.6,159.2l5.4,3.3c0.5-0.9,1-1.8,1.5-2.6l-5.6-2.8C-147.8,157.7-148.2,158.4-148.6,159.2z"/>
	<path class="st2" d="M-155.1,167l4.1,4.8c0.8-0.7,1.5-1.3,2.2-2.1l-4.5-4.4C-153.9,165.8-154.5,166.4-155.1,167z"/>
</g>
</svg>
