<?xml version="1.0" standalone="no"?><!DOCTYPE svg PUBLIC "-//W3C//DTD SVG 1.1//EN" "http://www.w3.org/Graphics/SVG/1.1/DTD/svg11.dtd"><svg t="1755074550216" class="icon" viewBox="0 0 1024 1024" version="1.1" xmlns="http://www.w3.org/2000/svg" p-id="31665" xmlns:xlink="http://www.w3.org/1999/xlink" width="128" height="128"><path d="M825.6 742.4c0-41.6-14.4-80-41.6-112-75.2 40-160 62.4-251.2 62.4-104 0-201.6-30.4-283.2-81.6-36.8 36.8-57.6 83.2-57.6 131.2 0 11.2 1.6 20.8 3.2 32 68.8 57.6 185.6 96 318.4 96 124.8 0 236.8-35.2 307.2-88 3.2-12.8 4.8-25.6 4.8-40z" fill="#DDF6EA" p-id="31666"></path><path d="M624 507.2c64-35.2 105.6-100.8 105.6-174.4 0-112-99.2-203.2-219.2-203.2-121.6 0-219.2 91.2-219.2 203.2 0 73.6 41.6 137.6 104 172.8-132.8 35.2-228.8 128-228.8 238.4 0 11.2 1.6 24 3.2 36.8l1.6 8 6.4 4.8c75.2 64 200 102.4 332.8 102.4 126.4 0 244.8-33.6 321.6-92.8l6.4-4.8 1.6-8c3.2-16 6.4-30.4 6.4-46.4 1.6-108.8-92.8-201.6-222.4-236.8zM339.2 332.8c0-86.4 76.8-155.2 171.2-155.2s171.2 68.8 171.2 155.2c0 84.8-76.8 155.2-171.2 155.2s-171.2-68.8-171.2-155.2z m457.6 438.4c-68.8 48-174.4 78.4-284.8 78.4-118.4 0-227.2-32-294.4-84.8-1.6-6.4-1.6-12.8-1.6-19.2 0-112 131.2-204.8 291.2-204.8 161.6 0 291.2 91.2 291.2 204.8 0 8 0 17.6-1.6 25.6z" fill="#49D292" p-id="31667"></path><path d="M600 366.4c-6.4-11.2-20.8-16-32-9.6-64 33.6-112 3.2-115.2 1.6-11.2-8-25.6-4.8-33.6 6.4s-4.8 25.6 6.4 33.6c1.6 1.6 33.6 22.4 83.2 22.4 24 0 52.8-4.8 83.2-20.8 9.6-6.4 14.4-20.8 8-33.6z" fill="#49D292" p-id="31668"></path></svg>