<?xml version="1.0" encoding="utf-8"?>
<!-- Generator: Adobe Illustrator 28.0.0, SVG Export Plug-In . SVG Version: 6.00 Build 0)  -->
<svg version="1.1" id="图层_1" xmlns="http://www.w3.org/2000/svg" xmlns:xlink="http://www.w3.org/1999/xlink" x="0px" y="0px"
	 viewBox="0 0 128 128" style="enable-background:new 0 0 128 128;" xml:space="preserve">
<style type="text/css">
	.st0{fill:#1AD29D;}
</style>
<path class="st0" d="M108.8,31.5c-8.8-13-18.9-13.6-25.7-13c-4.8,0.4-12.4,2.9-19,7.5c0,0-0.1,0-0.1-0.1c-1,0.7-1.9,1.5-2.8,2.2
	c-4.4,3.6-15,14.6-19.3,19.2l-0.3,0.3C41,48.3,40,48.7,39,48.7s-1.9-0.3-2.7-1c-0.7-0.7-1.1-1.6-1.2-2.6c0-1,0.3-1.9,1-2.7
	c0.1-0.1,14.5-15.4,20.2-20.1c0.2-0.1,0.3-0.3,0.5-0.4c-4.5-2-8.8-3.2-11.9-3.5c-6.8-0.6-16.9,0-25.7,13c-9.6,14.2-3.9,29.7,1,36.7
	c7.5,10.7,33.5,33.8,41.3,40.6l0.2,0.2c0.7,0.6,1.4,0.8,2.2,0.9c0.8-0.1,1.5-0.3,2.2-0.9l0.2-0.2c7.8-6.8,33.8-29.9,41.3-40.6
	C112.7,61.2,118.5,45.7,108.8,31.5z M100.2,55.7c-0.1,1.8-1.6,3.1-3.3,3.1h-0.1c-1,0-1.8-0.4-2.4-1.1s-0.9-1.5-0.8-2.4
	c0-0.5,0.1-5.4-1.8-9.4c-1.4-2.8-5.4-5.7-6.7-6.5c-1.5-1-2-3-1.1-4.5c1-1.5,3-2,4.5-1.1c1.6,1,6.9,4.7,9.2,9.3
	C100.5,48.7,100.2,55,100.2,55.7z"/>
</svg>
