<?xml version="1.0" encoding="utf-8"?>
<!-- Generator: Adobe Illustrator 28.0.0, SVG Export Plug-In . SVG Version: 6.00 Build 0)  -->
<svg version="1.1" id="图层_1" xmlns="http://www.w3.org/2000/svg" xmlns:xlink="http://www.w3.org/1999/xlink" x="0px" y="0px"
	 viewBox="0 0 128 128" style="enable-background:new 0 0 128 128;" xml:space="preserve">
<style type="text/css">
	.st0{fill:#49D292;}
</style>
<path class="st0" d="M78,63.4c8-4.4,13.2-12.6,13.2-21.8c0-14-12.4-25.4-27.4-25.4c-15.2,0-27.4,11.4-27.4,25.4
	c0,9.2,5.2,17.2,13,21.6c-16.6,4.4-28.6,16-28.6,29.8c0,1.4,0.2,3,0.4,4.6l0.2,1l0.8,0.6c9.4,8,25,12.8,41.6,12.8
	c15.8,0,30.6-4.2,40.2-11.6l0.8-0.6l0.2-1c0.4-2,0.8-3.8,0.8-5.8C106,79.4,94.2,67.8,78,63.4z M74,50c-3.8,2-7.4,2.6-10.4,2.6
	c-6.2,0-10.2-2.6-10.4-2.8c-1.4-1-1.8-2.8-0.8-4.2c1-1.4,2.8-1.8,4.2-0.8C57,45,63,48.8,71,44.6c1.4-0.8,3.2-0.2,4,1.2
	C75.8,47.4,75.2,49.2,74,50z"/>
</svg>
