<?xml version="1.0" encoding="utf-8"?>
<!-- Generator: Adobe Illustrator 28.0.0, SVG Export Plug-In . SVG Version: 6.00 Build 0)  -->
<svg version="1.1" id="图层_1" xmlns="http://www.w3.org/2000/svg" xmlns:xlink="http://www.w3.org/1999/xlink" x="0px" y="0px"
	 viewBox="0 0 128 128" style="enable-background:new 0 0 128 128;" xml:space="preserve">
<style type="text/css">
	.st0{fill:#DDF6EA;}
	.st1{fill:#1AD29D;}
</style>
<path class="st0" d="M103.5,103.4c0-5.2,4.9-19.8,1.5-23.8c-17.7,0-26.3,7.9-40.2,16.9C54,103.6,33.8,98,23.6,91.6
	c-4.6,4.6,0.7,5.8,0.7,11.8c0,1.4,0.2,2.6,0.4,4c8.6,7.2,23,7.8,39.6,7.8c15.6,0,29.8-0.2,38.6-6.8
	C103.3,106.8,103.5,105.2,103.5,103.4z"/>
<g>
	<path class="st1" d="M62,88H46c-2.2,0-4,1.8-4,4s1.8,4,4,4h16c2.2,0,4-1.8,4-4S64.2,88,62,88z"/>
	<path class="st1" d="M82,68H46c-2.2,0-4,1.8-4,4s1.8,4,4,4h36c2.2,0,4-1.8,4-4S84.2,68,82,68z"/>
	<path class="st1" d="M82,48H46c-2.2,0-4,1.8-4,4s1.8,4,4,4h36c2.2,0,4-1.8,4-4S84.2,48,82,48z"/>
	<path class="st1" d="M90,18h-2.8c-1.6-4.6-6-8-11.2-8H52c-5.2,0-9.6,3.4-11.2,8H38c-11,0-20,9-20,20v60c0,11,9,20,20,20h52
		c11,0,20-9,20-20V38C110,27,101,18,90,18z M52,18h24c2.2,0,4,1.8,4,4s-1.8,4-4,4H52c-2.2,0-4-1.8-4-4S49.8,18,52,18z M102,98
		c0,6.6-5.4,12-12,12H38c-6.6,0-12-5.4-12-12V38c0-6.6,5.4-12,12-12h2.8c1.6,4.6,6,8,11.2,8h24c5.2,0,9.6-3.4,11.2-8H90
		c6.6,0,12,5.4,12,12V98z"/>
</g>
</svg>
