<?xml version="1.0" encoding="utf-8"?>
<!-- Generator: Adobe Illustrator 28.0.0, SVG Export Plug-In . SVG Version: 6.00 Build 0)  -->
<svg version="1.1" id="图层_1" xmlns="http://www.w3.org/2000/svg" xmlns:xlink="http://www.w3.org/1999/xlink" x="0px" y="0px"
	 viewBox="0 0 128 128" style="enable-background:new 0 0 128 128;" xml:space="preserve">
<style type="text/css">
	.st0{fill:#1AD29D;}
</style>
<path class="st0" d="M113.4,44.7c-3.9-5.4-9.6-8.9-16.1-9.9l-20.6-3.3c0-0.2,0-0.4,0-0.4c0-2.8-0.8-5.5-2.2-7.9c0-0.1,0-0.3,0-0.4
	v-0.2c-0.4-4.8,2.3-7,3.8-7.5l0.2-0.1c1.4-0.6,2.2-2.2,1.7-3.6c-0.5-1.5-2.1-2.3-3.6-1.8c-2.3,0.8-6.1,3.3-7.3,8.5
	c-1.8-0.9-3.6-1.4-5.5-1.4c-1.8,0-3.4,0.4-4.9,1.1c-1.2-4.5-4.5-7.2-7.2-8.1c-1.5-0.5-3.1,0.4-3.6,1.8c-0.5,1.5,0.4,3.1,1.8,3.6
	c0,0,4,1.4,3.8,7c-1.8,2.5-2.9,5.7-2.9,9.1c0,0.2,0,0.4,0,0.5l-19.7,3.3C17.3,36.9,8.1,49.7,10.3,63c0.6,4,2.2,7.7,4.7,11l-0.3,0.2
	l2.2,2.2l0,0l1,0.9l0.9,0.9l0.1-0.1c5.6,4.8,13.1,6.6,20.3,5.3C41.6,97.1,51.7,107,63.5,107c11.9,0,21.9-9.9,24.3-23.7
	c7.9,1.8,16.2-0.4,22.2-6l1.2-1.3l0.1,0.1l0.9-1.1l0.9-0.9l-0.1-0.1c2.4-3.3,4-6.9,4.7-10.8C118.7,56.6,117.3,50.1,113.4,44.7z
	 M64,29.3l-0.6-0.1v0.2l-7.3,1.1c0.2-4.6,3.4-8.3,7.4-8.3c4,0,7.1,3.6,7.4,8.1l-6.3-1.1v-0.2L64,29.3z M63.6,101.2
	c-9.2,0-17.1-8.2-18.7-19.5c3.1-1.4,5.8-3.4,8-5.8c3.3-3.5,5.4-7.9,6.2-12.8L64,32.8l4.9,30.3c0.8,4.8,2.9,9.2,6.2,12.8
	c2,2.3,4.6,4.1,7.3,5.5C80.8,92.9,72.9,101.2,63.6,101.2z"/>
<path class="st0" d="M50,115.7c1,0.4,1.8,0.8,2.8,1.1l2.1-5.9c-0.8-0.3-1.6-0.6-2.3-1L50,115.7z"/>
<path class="st0" d="M40.1,108.5c0.7,0.7,1.5,1.4,2.2,2.1l4-4.8c-0.6-0.5-1.2-1.1-1.8-1.8L40.1,108.5z"/>
<path class="st0" d="M62.2,112.4l-0.3,6.2c0.5,0,1.1,0,1.6,0l0,0c0.5,0,1.1,0,1.6,0l-0.3-6.2C63.9,112.4,63.1,112.4,62.2,112.4z"/>
<path class="st0" d="M35.7,87.4l-6.1,1.3c0.1,0.5,0.3,1,0.4,1.5l6.1-1.6C35.8,88.3,35.7,87.9,35.7,87.4z"/>
<path class="st0" d="M33.1,98.7c0.4,0.9,1,1.8,1.5,2.6l0,0l5.4-3.3c-0.4-0.7-0.9-1.5-1.2-2.2L33.1,98.7z"/>
<path class="st0" d="M91,88.7l6.1,1.6c0.1-0.4,0.3-1,0.4-1.5l-6.1-1.3C91.3,87.9,91.2,88.3,91,88.7z"/>
<path class="st0" d="M72,110.9l2.1,5.9c1-0.4,1.9-0.7,2.8-1.1l-2.6-5.6C73.6,110.3,72.8,110.7,72,110.9z"/>
<path class="st0" d="M87.1,98.2l5.4,3.3c0.5-0.9,1-1.8,1.5-2.6L88.4,96C87.9,96.7,87.6,97.4,87.1,98.2z"/>
<path class="st0" d="M80.6,105.9l4,4.8c0.8-0.7,1.5-1.3,2.2-2.1l-4.5-4.4C81.9,104.8,81.3,105.4,80.6,105.9z"/>
<path class="st0" d="M311.1-5.1"/>
</svg>
