<?xml version="1.0" encoding="utf-8"?>
<!-- Generator: Adobe Illustrator 28.0.0, SVG Export Plug-In . SVG Version: 6.00 Build 0)  -->
<svg version="1.1" id="图层_1" xmlns="http://www.w3.org/2000/svg" xmlns:xlink="http://www.w3.org/1999/xlink" x="0px" y="0px"
	 viewBox="0 0 128 128" style="enable-background:new 0 0 128 128;" xml:space="preserve">
<style type="text/css">
	.st0{fill:#1AD29D;}
</style>
<path class="st0" d="M52,15h24c2.2,0,4,1.8,4,4s-1.8,4-4,4H52c-2.2,0-4-1.8-4-4S49.8,15,52,15z"/>
<path class="st0" d="M90,19h-1.4c0,0.1,0,0.2,0,0.2c0,5-4,9-9,9h-30c-5,0-9-4-9-9c0-0.1,0-0.2,0-0.2H38c-11,0-20,9-20,20v60
	c0,11,9,20,20,20h52c11,0,20-9,20-20V39C110,28,101,19,90,19z M62,98H46c-2.2,0-4-1.8-4-4s1.8-4,4-4h16c2.2,0,4,1.8,4,4
	S64.2,98,62,98z M82,78H46c-2.2,0-4-1.8-4-4s1.8-4,4-4h36c2.2,0,4,1.8,4,4S84.2,78,82,78z M82,58H46c-2.2,0-4-1.8-4-4s1.8-4,4-4h36
	c2.2,0,4,1.8,4,4S84.2,58,82,58z"/>
</svg>
